<svg xmlns="http://www.w3.org/2000/svg" xmlns:xlink="http://www.w3.org/1999/xlink" width="30px" height="35px" viewBox="0 0 30 35" version="1.1">
    <!-- Generator: sketchtool 59 (101010) - https://sketch.com -->
    <title>B5999D45-A1DC-467C-9AF5-EA0EB39EAF0F@3x</title>
    <desc fill="#d82c4b">Created with sketchtool.</desc>
    <defs fill="#d82c4b">
        <linearGradient x1="23.8090576%" y1="33.0686978%" x2="50%" y2="100%" id="linearGradient-1" fill="#d82c4b">
            <stop stop-color="#05F386" offset="0%" fill="#d82c4b"/>
            <stop stop-color="#05581D" offset="100%" fill="#d82c4b"/>
        </linearGradient>
    </defs>
    <g id="Web2020" stroke="none" stroke-width="1" fill="none" fill-rule="evenodd">
        <g id="Default_v8" transform="translate(-949.000000, -1837.000000)" fill="url(#linearGradient-1)" fill-rule="nonzero">
            <g id="Group-24" transform="translate(376.000000, 1832.000000)">
                <path d="M602.400253,8.37518237 C601.916824,7.80725158 601.21183,7.48165524 600.466055,7.48165524 L598.018252,7.48165524 L598.018252,6.71671234 C598.018252,5.77013822 597.247296,5 596.29987,5 L579.700268,5 C578.752704,5 577.981954,5.77013822 577.981954,6.71664398 L577.981954,7.48158688 L575.533877,7.48158688 C574.788102,7.48158688 574.08304,7.80725158 573.599679,8.37511401 C573.121244,8.93709753 572.914461,9.67524351 573.032496,10.4001961 C573.6757,14.3513757 576.164696,17.8420173 579.697189,19.7566987 C580.019954,20.5319639 580.385486,21.2662818 580.792552,21.9504237 C582.092783,24.136219 583.709211,25.6468274 585.488424,26.3773855 C585.668726,28.1987562 584.455601,29.9242186 582.628627,30.335401 C582.624727,30.3362897 582.62199,30.3376569 582.618158,30.3385456 C582.26159,30.4236532 581.996166,30.7433022 581.996166,31.1255686 L581.996166,34.8417966 L580.491751,34.8417966 C579.150465,34.8417966 578.059275,35.9319256 578.059275,37.2719087 L578.059275,39.1899398 C578.059275,39.6373528 578.422275,40 578.870123,40 L597.207404,40 C597.655252,40 598.018252,39.6373528 598.018252,39.1899398 L598.018252,37.2719087 C598.018252,35.9319256 596.927062,34.8417966 595.585776,34.8417966 L594.081225,34.8417966 L594.081225,31.125637 C594.081225,30.7426186 593.814842,30.4224911 593.457316,30.3381354 C593.453963,30.3373151 593.450747,30.3362214 593.447395,30.335401 C591.606598,29.9214842 590.391215,28.1786586 590.590472,26.3436159 C592.33862,25.6012316 593.926719,24.10409 595.20779,21.9505605 C595.614857,21.2663501 595.98032,20.5319639 596.303154,19.756562 C599.835441,17.8418122 602.3243,14.351239 602.967505,10.4001961 C603.08554,9.67524351 602.878756,8.93716589 602.400253,8.37518237 Z M574.633117,10.1400882 C574.590966,9.88121071 574.662608,9.62711841 574.834905,9.42463755 C575.009733,9.21928558 575.264415,9.10157051 575.533808,9.10157051 L577.981885,9.10157051 L577.981885,10.5919445 C577.981885,12.9288827 578.280428,15.1925394 578.846243,17.2626704 C576.622671,15.5072666 575.091708,12.9572519 574.633117,10.1400882 Z M596.396624,37.2720455 L596.396624,38.3800164 L579.680903,38.3800164 L579.680903,37.2720455 C579.680903,36.8253844 580.044656,36.4619853 580.491751,36.4619853 L595.585776,36.4619853 C596.032871,36.4619853 596.396624,36.8253844 596.396624,37.2720455 Z M592.459528,31.9356971 L592.459528,34.8418649 L583.617999,34.8418649 L583.617999,31.9356971 L592.459528,31.9356971 Z M586.292019,29.6006047 C586.832379,28.7571167 587.116005,27.7988531 587.128732,26.82015 C587.416737,26.85932 587.707411,26.8803064 588.000548,26.8803064 C588.319481,26.8803064 588.635473,26.8558337 588.948385,26.809486 C588.96686,28.1246545 589.479234,29.3695495 590.340785,30.3155768 L585.744474,30.3155768 C585.944894,30.0952541 586.128138,29.8563376 586.292019,29.6006047 Z M593.813611,21.1227268 C592.226675,23.7907984 590.162125,25.2601861 588.000411,25.2601861 C585.838354,25.2601861 583.773668,23.7908668 582.186527,21.1228635 C580.520901,18.3227897 579.603582,14.582841 579.603582,10.5921496 L579.603582,6.71664398 C579.603582,6.66332356 579.646964,6.62005199 579.700199,6.62005199 L596.299733,6.62005199 C596.353105,6.62005199 596.396487,6.66339192 596.396487,6.71664398 L596.396487,10.5920129 C596.396487,14.5827726 595.479168,18.3227213 593.813611,21.1227268 Z M601.366884,10.1400882 C600.908293,12.9570468 599.377466,15.5069932 597.153963,17.2625337 C597.719709,15.1924027 598.018252,12.9288827 598.018252,10.5920129 L598.018252,9.10163887 L600.466055,9.10163887 C600.735517,9.10163887 600.990199,9.2194223 601.164959,9.42470591 C601.337255,9.62711841 601.408966,9.88121071 601.366884,10.1400882 Z" id="Tournament-Copy" fill="#d82c4b"/>
            </g>
        </g>
    </g>
</svg>