<svg xmlns="http://www.w3.org/2000/svg" xmlns:xlink="http://www.w3.org/1999/xlink" width="43px" height="31px" viewBox="0 0 43 31" version="1.1">
    <!-- Generator: sketchtool 59 (101010) - https://sketch.com -->
    <title>C3895AC1-40B1-4834-82A9-25DD19FD1AA1@3x</title>
    <desc fill="#d82c4b">Created with sketchtool.</desc>
    <defs fill="#d82c4b">
        <linearGradient x1="14.3512173%" y1="41.2001182%" x2="50%" y2="75.98702%" id="linearGradient-1" fill="#d82c4b">
            <stop stop-color="#67d3a0" offset="0%" fill="#d82c4b"/>
            <stop stop-color="#05581D" offset="100%" fill="#d82c4b"/>
        </linearGradient>
    </defs>
    <g id="Web2020" stroke="none" stroke-width="1" fill="none" fill-rule="evenodd">
        <g id="Default_v8" transform="translate(-391.000000, -1840.000000)" fill="url(#linearGradient-1)" fill-rule="nonzero">
            <g id="Group-24" transform="translate(376.000000, 1832.000000)">
                <path d="M29.6164999,19.3518375 C29.6164999,19.8325919 29.2294604,20.2222437 28.7519291,20.2222437 L26.6815705,20.2222437 L26.6815705,22.3065764 C26.6815705,22.7873308 26.294531,23.1769826 25.8169997,23.1769826 C25.3394685,23.1769826 24.952429,22.7873308 24.952429,22.3065764 L24.952429,20.2222437 L22.8820703,20.2222437 C22.4045391,20.2222437 22.0174996,19.8325919 22.0174996,19.3518375 C22.0174996,18.8710832 22.4045391,18.4814313 22.8820703,18.4814313 L24.952429,18.4814313 L24.952429,16.3970986 C24.952429,15.9163443 25.3394685,15.5266925 25.8169997,15.5266925 C26.294531,15.5266925 26.6815705,15.9163443 26.6815705,16.3970986 L26.6815705,18.4814313 L28.7519291,18.4814313 C29.2294604,18.4814313 29.6164999,18.8711799 29.6164999,19.3518375 Z M34.8646363,18.4816248 L34.5274537,18.4816248 C34.0499225,18.4816248 33.662883,18.8712766 33.662883,19.3520309 C33.662883,19.8327853 34.0499225,20.2224371 34.5274537,20.2224371 L34.8646363,20.2224371 C35.3421675,20.2224371 35.729207,19.8327853 35.729207,19.3520309 C35.729207,18.8712766 35.3421675,18.4816248 34.8646363,18.4816248 Z M49.5779009,28.2377176 C49.4481192,27.7751451 48.9708762,27.505706 48.5109246,27.6366538 C48.0514533,27.7673114 47.7842049,28.2481625 47.9138905,28.7108317 C48.3183174,30.1526112 49.540148,32.217118 50.5488138,33.6683752 C50.7170209,33.9104449 50.985326,34.039942 51.257954,34.039942 C51.4290429,34.039942 51.6019571,33.9888781 51.7527766,33.8825919 C52.1440429,33.6069632 52.2392417,33.0643133 51.9655571,32.6705029 C50.8179835,31.0192456 49.8584061,29.237911 49.5779009,28.2377176 Z M24.4891152,27.6366538 C24.0293557,27.5055126 23.5518244,27.7752418 23.4221388,28.2378143 C23.1419218,29.2373308 22.1824405,31.0187621 21.0346748,32.6705996 C20.7609901,33.0644101 20.856285,33.6071567 21.2475513,33.8826886 C21.3984669,33.9889749 21.571189,34.039942 21.742374,34.039942 C22.0150019,34.039942 22.2834031,33.9103482 22.4516101,33.6682785 C23.460276,32.2165377 24.6821066,30.1518375 25.0862453,28.710735 C25.216027,28.2482592 24.9486825,27.7673114 24.4891152,27.6366538 Z M38.4728742,18.4816248 L38.1354995,18.4816248 C37.6579683,18.4816248 37.2709288,18.8712766 37.2709288,19.3520309 C37.2709288,19.8327853 37.6579683,20.2224371 38.1354995,20.2224371 L38.4728742,20.2224371 C38.9504054,20.2224371 39.3374449,19.8327853 39.3374449,19.3520309 C39.3374449,18.8712766 38.9504054,18.4816248 38.4728742,18.4816248 Z M47.2339536,23.1259188 C45.1668611,23.1259188 43.485271,21.432882 43.485271,19.3519342 C43.485271,17.2709865 45.1669571,15.5780464 47.2339536,15.5780464 C49.3009501,15.5780464 50.9825402,17.2710832 50.9825402,19.3519342 C50.9825402,21.432882 49.3009501,23.1259188 47.2339536,23.1259188 Z M49.2533987,19.3518375 C49.2533987,18.2307544 48.3474246,17.3187621 47.2339536,17.3187621 C46.1202905,17.3187621 45.2144125,18.2308511 45.2144125,19.3518375 C45.2144125,20.4730174 46.1203865,21.3850097 47.2339536,21.3850097 C48.3474246,21.3851064 49.2533987,20.4730174 49.2533987,19.3518375 Z M34.8734741,29.5823017 C30.2236207,29.6014507 30.1443683,29.7302708 28.1131074,33.0290135 C25.8336187,36.7310445 24.2061123,39 19.6650026,39 C18.2953305,39 17.0588983,38.446325 16.1832803,37.4410058 C15.2655865,36.387234 14.8516492,34.9245648 15.0477146,33.4283366 L16.9141307,19.1811412 C17.9874472,10.9878143 21.9632237,9.26731141 26.3346855,9.03665377 C26.3243106,8.9827853 26.3189311,8.92727273 26.3189311,8.87040619 C26.3189311,8.38965184 26.7059706,8 27.1835018,8 L29.7009396,8 C30.1784708,8 30.5655103,8.38965184 30.5655103,8.87040619 C30.5655103,8.91682785 30.5618599,8.96247582 30.5549434,9.00696325 L42.4452885,9.00696325 C42.4382759,8.96247582 42.4347215,8.91682785 42.4347215,8.87040619 C42.4347215,8.38965184 42.821761,8 43.2992922,8 L45.816634,8 C46.2941652,8 46.6812047,8.38965184 46.6812047,8.87040619 C46.6812047,8.92727273 46.6757291,8.9827853 46.6654503,9.03665377 C51.0370081,9.26731141 55.0127846,10.9878143 56.085909,19.1810445 L57.9523251,33.4282398 C58.1482945,34.9246615 57.7343572,36.387234 56.8166634,37.4409091 C55.9411415,38.446325 54.7047093,39 53.3350371,39 C48.7939274,39 47.166325,36.7309478 44.8869323,33.0289168 C42.8571124,29.7324952 42.7779561,29.6038685 38.1891989,29.5823985 L34.8734741,29.5823017 Z M38.1971722,27.8416828 C43.4344535,27.8661509 44.0384042,28.3470986 46.3565104,32.1117021 C48.5542492,35.6810445 49.6799203,37.2591876 53.3350371,37.2591876 C54.1993196,37.2591876 54.9741671,36.9161509 55.5165412,36.2934236 C56.114632,35.6065764 56.3709292,34.6699226 56.2380735,33.6559961 L54.3716574,19.4088008 C53.9003703,15.8105416 52.8277262,13.4312379 51.0923406,12.1350097 C49.4560925,10.912766 47.3268469,10.7479691 45.4597584,10.7479691 L27.5402813,10.7479691 C25.6732889,10.7479691 23.5440433,10.912766 21.9077952,12.1350097 C20.1726017,13.4312379 19.0999576,15.8105416 18.6285745,19.4088008 L16.7620623,33.6558994 C16.6292066,34.6698259 16.8854077,35.6065764 17.4834986,36.2933269 C18.0258726,36.9161509 18.800624,37.2591876 19.6650026,37.2591876 C23.3200234,37.2591876 24.4456945,35.6811412 26.6434333,32.1117021 C28.9631726,28.3444874 29.5707737,27.8633462 34.8663654,27.8414894 L38.1971722,27.8416828 Z" id="Player" fill="#d82c4b"/>
            </g>
        </g>
    </g>
</svg>