<svg xmlns="http://www.w3.org/2000/svg" xmlns:xlink="http://www.w3.org/1999/xlink" width="30px" height="36px" viewBox="0 0 30 36" version="1.1">
    <!-- Generator: sketchtool 59 (101010) - https://sketch.com -->
    <title>614458D7-AE7E-4E2B-A043-EEB369B58D65@3x</title>
    <desc fill="#ffffff">Created with sketchtool.</desc>
    <defs fill="#ffffff">
        <linearGradient x1="26.4662333%" y1="33.0686978%" x2="50%" y2="100%" id="linearGradient-1" fill="#ffffff">
            <stop stop-color="#d82c4b" offset="0%" fill="#ffffff"/>
            <stop stop-color="#540c19" offset="100%" fill="#ffffff"/>
        </linearGradient>
    </defs>
    <g id="Web2020" stroke="none" stroke-width="1" fill="none" fill-rule="evenodd">
        <g id="Default_v8" transform="translate(-581.000000, -1836.000000)" fill-rule="nonzero" stroke="url(#linearGradient-1)" stroke-width="2.4">
            <g id="Group-24" transform="translate(376.000000, 1832.000000)">
                <path d="M213.517001,12.3246798 C213.517001,8.83558325 216.418483,6 219.988666,6 C223.558849,6 226.460331,8.83558325 226.460331,12.3246798 C226.460331,15.6919349 223.751526,18.4499827 220.362685,18.6382831 C220.238012,18.6382831 220.113339,18.6382831 219.988666,18.6382831 C219.863993,18.6382831 219.73932,18.6382831 219.614647,18.6382831 C216.225806,18.4499827 213.517001,15.6919349 213.517001,12.3246798 Z M228.783784,38 L211.216216,38 C208.892764,38 207,36.150225 207,33.8795431 L207,33.1263413 C207,26.2478366 212.621622,20.6209761 219.614647,20.4215992 C219.73932,20.4326757 219.875327,20.4326757 220,20.4326757 C220.124673,20.4326757 220.26068,20.4326757 220.385353,20.4215992 C227.378378,20.6209761 233,26.2478366 233,33.1263413 L233,33.8795431 C233,36.150225 231.107236,38 228.783784,38 Z" id="Team-Copy" fill="#ffffff"/>
            </g>
        </g>
    </g>
</svg>