<svg xmlns="http://www.w3.org/2000/svg" xmlns:xlink="http://www.w3.org/1999/xlink" width="51px" height="32px" viewBox="0 0 51 32" version="1.1">
    <!-- Generator: sketchtool 59 (101010) - https://sketch.com -->
    <title>0879127A-CA3D-4702-A171-5165B911DF25@3x</title>
    <desc fill="#d82c4b">Created with sketchtool.</desc>
    <defs fill="#d82c4b">
        <linearGradient x1="14.3512173%" y1="43.3342355%" x2="50%" y2="69.6847366%" id="linearGradient-1" fill="#d82c4b">
            <stop stop-color="#05F386" offset="0%" fill="#d82c4b"/>
            <stop stop-color="#05581D" offset="100%" fill="#d82c4b"/>
        </linearGradient>
    </defs>
    <g id="Web2020" stroke="none" stroke-width="1" fill="none" fill-rule="evenodd">
        <g id="Default_v8" transform="translate(-761.000000, -1838.000000)" fill="url(#linearGradient-1)" fill-rule="nonzero">
            <g id="Group-24" transform="translate(376.000000, 1832.000000)">
                <path d="M429.107835,20.0803989 C430.601306,19.0433157 431.590226,17.3181677 431.590226,15.3736366 C431.590226,12.1925834 428.986743,9.61981926 425.767709,9.61981926 C422.548674,9.61981926 419.945192,12.1925834 419.945192,15.3736366 C419.945192,17.3181677 420.924021,19.0433157 422.427582,20.0803989 C421.146023,20.5191648 419.975465,21.1972577 418.986545,22.0747897 C417.624258,20.928015 416.019786,20.050483 414.263949,19.5319414 C416.393154,18.2555313 417.826078,15.9320661 417.826078,13.2894983 C417.826078,9.26082892 414.526316,6 410.449545,6 C406.372774,6 403.073011,9.27080087 403.073011,13.2894983 C403.073011,15.9320661 404.495845,18.2555313 406.63514,19.5319414 C404.899486,20.050483 403.315196,20.918043 401.963,22.0448738 C400.97408,21.1872858 399.823704,20.5191648 398.562327,20.0903708 C400.055797,19.0532876 401.044717,17.3281396 401.044717,15.3836086 C401.044717,12.2025553 398.441235,9.62979121 395.2222,9.62979121 C392.003166,9.62979121 389.399683,12.2025553 389.399683,15.3836086 C389.399683,17.3281396 390.378512,19.0532876 391.882074,20.0903708 C387.87594,21.4565285 385,25.2159551 385,29.6335307 L385,30.2916797 C385,30.3116236 385.020182,30.3315675 385.040364,30.3315675 L397.381678,30.3315675 C397.311041,30.8800249 397.270677,31.4484263 397.270677,32.0168277 L397.270677,32.6949205 C397.270677,35.626675 399.672339,38 402.639098,38 L418.280174,38 C421.246933,38 423.648595,35.626675 423.648595,32.6949205 L423.648595,32.0168277 C423.648595,31.4484263 423.608231,30.8800249 423.537594,30.3315675 L435.959636,30.3315675 C435.979818,30.3315675 436,30.3116236 436,30.2916797 L436,29.6335307 C435.979818,25.2059832 433.113969,21.4465566 429.107835,20.0803989 Z M421.559755,15.3636647 C421.559755,13.0701153 423.446775,11.2053599 425.767709,11.2053599 C428.088643,11.2053599 429.975663,13.0701153 429.975663,15.3636647 C429.975663,17.6272982 428.129007,19.4721097 425.848437,19.5219695 C425.818164,19.5219695 425.797982,19.5219695 425.767709,19.5219695 C425.737436,19.5219695 425.717254,19.5219695 425.686981,19.5219695 C423.39632,19.4820816 421.559755,17.6372702 421.559755,15.3636647 Z M404.667392,13.2894983 C404.667392,10.1483328 407.250693,7.59551262 410.429363,7.59551262 C413.608033,7.59551262 416.191334,10.1483328 416.191334,13.2894983 C416.191334,16.3209723 413.779581,18.8039888 410.762366,18.973512 C410.651365,18.973512 410.540364,18.973512 410.429363,18.973512 C410.318362,18.973512 410.207361,18.973512 410.096359,18.973512 C407.079145,18.8039888 404.667392,16.3209723 404.667392,13.2894983 Z M390.983973,15.3636647 C390.983973,13.0701153 392.870993,11.2053599 395.191927,11.2053599 C397.512861,11.2053599 399.399881,13.0701153 399.399881,15.3636647 C399.399881,17.6272982 397.553225,19.4721097 395.272655,19.5219695 C395.242382,19.5219695 395.2222,19.5219695 395.191927,19.5219695 C395.161654,19.5219695 395.141472,19.5219695 395.111199,19.5219695 C392.830629,19.4820816 390.983973,17.6372702 390.983973,15.3636647 Z M397.664226,28.7260829 L386.634745,28.7260829 C387.088841,24.4780305 390.721607,21.1473979 395.131381,21.1174821 C395.151563,21.1174821 395.171745,21.1174821 395.191927,21.1174821 C395.212109,21.1174821 395.232291,21.1174821 395.252473,21.1174821 C397.351405,21.127454 399.268698,21.8952945 400.752078,23.1417887 C399.298971,24.6974135 398.219232,26.6120287 397.664226,28.7260829 Z M418.259992,36.4044874 L402.618916,36.4044874 C400.550257,36.4044874 398.865057,34.7391711 398.865057,32.6949205 L398.865057,32.0168277 C398.865057,25.8242443 403.870202,20.7584917 410.096359,20.5789966 C410.207361,20.5889685 410.328453,20.5889685 410.439454,20.5889685 C410.550455,20.5889685 410.671547,20.5889685 410.782548,20.5789966 C417.008706,20.7584917 422.01385,25.8242443 422.01385,32.0168277 L422.01385,32.6949205 C422.01385,34.7391711 420.328651,36.4044874 418.259992,36.4044874 Z M423.214681,28.7260829 C422.659676,26.6220006 421.600119,24.7373013 420.157103,23.1816765 C421.650574,21.9052664 423.588049,21.137426 425.707163,21.1174821 C425.727345,21.1174821 425.747527,21.1174821 425.767709,21.1174821 C425.787891,21.1174821 425.808073,21.1174821 425.828255,21.1174821 C430.238029,21.1473979 433.870795,24.4780305 434.324891,28.7260829 L423.214681,28.7260829 Z" id="Team" fill="#d82c4b"/>
            </g>
        </g>
    </g>
</svg>