<svg xmlns="http://www.w3.org/2000/svg" xmlns:xlink="http://www.w3.org/1999/xlink" width="29px" height="37px" viewBox="0 0 29 37" version="1.1">
    <!-- Generator: sketchtool 59 (101010) - https://sketch.com -->
    <title>5E69B2A5-0494-4BF5-9F5C-365583D1E285@3x</title>
    <desc fill="#d82c4b">Created with sketchtool.</desc>
    <defs fill="#d82c4b">
        <linearGradient x1="14.3512173%" y1="33.3271872%" x2="50%" y2="99.2366524%" id="linearGradient-1" fill="#d82c4b">
            <stop stop-color="#d82c4b" offset="0%" fill="#d82c4b"/>
            <stop stop-color="#33070f" offset="100%" fill="#d82c4b"/>
        </linearGradient>
        <linearGradient x1="28.1003461%" y1="33.0686978%" x2="50%" y2="100%" id="linearGradient-2" fill="#d82c4b">
            <stop stop-color="#d82c4b" offset="0%" fill="#d82c4b"/>
            <stop stop-color="#33070f" offset="100%" fill="#d82c4b"/>
        </linearGradient>
    </defs>
    <g id="Web2020" stroke="none" stroke-width="1" fill="none" fill-rule="evenodd">
        <g id="Default_v8" transform="translate(-1140.000000, -1836.000000)" fill-rule="nonzero">
            <g id="Group-24" transform="translate(376.000000, 1832.000000)">
                <g id="Group-19-Copy" transform="translate(764.000000, 4.000000)">
                    <path d="M24.0285714,13.5665287 C24.0285714,8.35282984 19.7540981,4.11111111 14.5001391,4.11111111 C9.24590188,4.11111111 4.97142857,8.35282984 4.97142857,13.5665287 C4.97142857,18.7805035 9.24590188,23.0222222 14.5001391,23.0222222 C19.7540981,23.0222222 24.0285714,18.7805035 24.0285714,13.5665287 Z M14.5001391,21.9624825 C9.83492824,21.9624825 6.03935165,18.1959908 6.03935165,13.5665287 C6.03935165,8.93734258 9.83492824,5.17085087 14.5001391,5.17085087 C19.1653499,5.17085087 22.9606484,8.93734258 22.9606484,13.5665287 C22.9606484,18.1959908 19.1653499,21.9624825 14.5001391,21.9624825 Z" id="Shape" fill="url(#linearGradient-1)"/>
                    <path d="M28.8889283,31.7327823 L23.8117509,22.8107779 L24.701237,22.5251021 C25.7729069,22.1812749 26.4802091,21.1554392 26.4215493,20.0305203 L26.3541469,18.7384866 C26.3335595,18.3475173 26.479081,17.9630406 26.7534849,17.6838575 L27.6601741,16.7616216 C28.4492616,15.9585113 28.5992954,14.7212417 28.0251059,13.7524282 L27.3654649,12.6399299 C27.1657959,12.30316 27.1164426,11.894971 27.229532,11.5200921 L27.6040525,10.2816934 C27.9300657,9.20363426 27.4884249,8.0383481 26.5304084,7.44780095 L25.4296905,6.76917984 C25.0966268,6.56395622 24.8631155,6.22577486 24.7895087,5.84101586 L24.5461268,4.57043618 C24.334331,3.46414826 23.4022601,2.63760807 22.2795449,2.56026111 L20.9898747,2.47162254 C20.5995612,2.44480514 20.2360394,2.25369597 19.9923755,1.94741316 L19.1866489,0.935409502 C18.4855512,0.0546699615 17.2762563,-0.243426498 16.246607,0.210210841 L15.0635398,0.731597375 C15.0635398,0.731597375 15.0635398,0.731597375 15.0632578,0.731597375 C14.7053764,0.889396561 14.2947576,0.889396561 13.9365942,0.731597375 L12.753527,0.210210841 C11.7235957,-0.243426498 10.5145829,0.0546699615 9.81320305,0.935691845 L9.00775846,1.94741316 C8.76409456,2.25369597 8.40057284,2.44480514 8.01025936,2.47162254 L6.72058919,2.56026111 C5.59787384,2.63760807 4.66580301,3.46414826 4.45400717,4.57043618 L4.21062526,5.84101586 C4.13673648,6.22549258 3.90350723,6.56395622 3.57044351,6.76917984 L2.46972563,7.44751868 C1.51170911,8.03806583 1.07006824,9.20363426 1.3960816,10.2816934 L1.77031997,11.5200921 C1.88369141,11.894971 1.83433817,12.3028777 1.63466914,12.6396476 L0.975028056,13.7524282 C0.400838572,14.7209594 0.550872367,15.9585113 1.33995992,16.7613393 L2.24664912,17.6838575 C2.52077095,17.9630406 2.66657452,18.3472351 2.64598719,18.7382044 L2.57858478,20.0305203 C2.51992495,21.155157 3.22722712,22.1809927 4.29861501,22.5251021 L5.18838311,22.8104956 L0.111205646,31.7327823 C-0.0422123329,32.0023677 -0.0365719647,32.3337742 0.126152676,32.5979961 C0.288877281,32.8622179 0.583586502,33.0169118 0.891832607,32.9999746 L5.13536365,32.780072 L7.11090267,36.5460804 C7.25501402,36.8204646 7.53703244,36.9946365 7.84697069,37 C7.85176498,37 7.85655928,37 7.86135364,37 C8.16565145,37 8.44710586,36.8368374 8.59798573,36.5714863 L13.764845,27.4914004 C14.0039966,27.5656423 14.2518908,27.6043157 14.500067,27.6043157 C14.7482432,27.6043157 14.9958554,27.5656423 15.235289,27.4914004 L20.4021483,36.5714863 C20.5530282,36.8368374 20.8342005,37 21.1384983,37 C21.1432927,37 21.148369,37 21.1531634,37 C21.4631016,36.9946365 21.74512,36.8207469 21.8892314,36.5460804 L23.8644883,32.780072 L28.1083014,32.9999746 C28.4190856,33.0163473 28.7112568,32.8619356 28.8736994,32.5979961 C29.036424,32.3337742 29.0423464,32.0023677 28.8889283,31.7327823 Z M7.86981416,35.6611065 L6.0705367,32.2313035 L7.13290007,30.3648132 C7.28095972,30.1045433 7.19043183,29.7737014 6.93041089,29.6255001 C6.67095395,29.477581 6.3401463,29.5681955 6.19208665,29.8281831 L5.12972328,31.6949557 L1.26494298,31.8953804 L6.14442556,23.3208729 C6.23636353,23.4239081 6.31420061,23.5404932 6.37286044,23.6680875 L6.91320771,24.8438183 C7.19353405,25.4538433 7.69891104,25.9060692 8.295944,26.1304885 L7.44988876,27.6175833 C7.30182912,27.8775708 7.39263901,28.208695 7.65237802,28.3568964 C7.73698347,28.4048854 7.82920351,28.4277507 7.92001347,28.4277507 C8.10811977,28.4277507 8.2911497,28.3295144 8.39098418,28.1539311 L9.46237214,26.2713503 C9.50636701,26.2659869 9.55036189,26.2600588 9.59435676,26.2521548 L10.8679519,26.0294292 C11.252907,25.9619623 11.6516811,26.060481 11.9616193,26.2992969 L12.8203654,26.961263 L7.86981416,35.6611065 Z M15.203985,26.3292194 C15.2020108,26.3303486 15.2003187,26.3309131 15.1986266,26.3320423 C15.1958064,26.3337361 15.1929862,26.3357121 15.1901661,26.3374058 C14.7629082,26.580456 14.2372259,26.580456 13.809968,26.3374058 C13.8071478,26.3357121 13.8046096,26.3337361 13.8015074,26.3320423 C13.7998153,26.3309131 13.7981232,26.3303486 13.7964311,26.3292194 C13.7451037,26.2992969 13.6949044,26.267116 13.6469614,26.2301362 L12.6226705,25.4405758 C12.186388,25.1040882 11.650835,24.9245528 11.1065395,24.9245528 C10.9649662,24.9245528 10.822829,24.9369735 10.6815377,24.9615325 L9.40794261,25.184258 C9.32587523,25.1986547 9.24380786,25.2051473 9.16258655,25.2048651 C9.15581811,25.2045828 9.14933167,25.2043005 9.1428453,25.2043005 C8.61406076,25.194985 8.1244768,24.8853147 7.89716993,24.3904633 L7.35682272,23.2150148 C7.12584963,22.7122592 6.73243393,22.3037881 6.24820833,22.0508578 C6.24708026,22.0502931 6.24623419,22.0494463 6.24510611,22.0488817 C6.24200389,22.047188 6.23890167,22.0457765 6.23608152,22.0443651 C6.22451879,22.0384371 6.21295605,22.032509 6.20139324,22.0268633 C6.19857309,22.0254518 6.19631695,22.0243226 6.19349673,22.0231935 C6.08632973,21.9704056 5.97521451,21.9249571 5.860433,21.8879773 L4.62942266,21.493056 C4.02562119,21.299124 3.62684719,20.7209975 3.66012533,20.0872602 L3.72752774,18.7949443 C3.7636261,18.1010797 3.50529724,17.4190711 3.0185335,16.9239374 L2.11212629,16.0014191 C1.66738327,15.548911 1.58277775,14.8516589 1.90625288,14.3057133 L2.56589389,13.1929327 C2.92010902,12.5953284 3.00809876,11.8712589 2.80701965,11.2061875 L2.4324992,9.96778875 C2.2486232,9.3603043 2.49764547,8.70341937 3.03771075,8.37088377 L4.13842855,7.69226259 C4.72953914,7.32782843 5.14354224,6.72768344 5.27411671,6.04511033 L5.51749861,4.77453058 C5.63679242,4.15123798 6.16219267,3.6854623 6.79475998,3.64170759 L8.08443015,3.5530691 C8.77678537,3.50536232 9.42204349,3.16633407 9.85465977,2.62292908 L10.6601044,1.61120776 C11.0554941,1.1146626 11.7368506,0.946701035 12.3172445,1.20245428 L13.5000297,1.72355848 C14.1354172,2.00358848 14.8644348,2.00358848 15.4995403,1.72355848 L16.6826075,1.20245428 C17.2632834,0.946701035 17.9443579,1.1146626 18.3394656,1.61120776 L19.1451923,2.62321135 C19.5775265,3.16661634 20.2230666,3.50536232 20.9154218,3.5530691 L22.205092,3.64198993 C22.8376593,3.6854623 23.3630596,4.15123798 23.4823534,4.77453058 L23.7257353,6.0453926 C23.8565918,6.72768344 24.2705948,7.3281107 24.8614234,7.69226259 L25.9621412,8.37088377 C26.5022065,8.70370164 26.7512288,9.3603043 26.5673528,9.96778875 L26.1928323,11.2064699 C25.9917532,11.8712589 26.079743,12.5953284 26.4339581,13.193215 L27.0935992,14.3057133 C27.4170742,14.8516589 27.3327508,15.548911 26.8877257,16.0014191 L25.9813186,16.9239374 C25.4945548,17.4190711 25.2362259,18.1010797 25.2723242,18.7952266 L25.3397267,20.0872602 C25.3730048,20.7209975 24.9742308,21.299124 24.3704294,21.493056 L23.139419,21.8879773 C23.0246375,21.9249571 22.9135223,21.9704056 22.8063553,22.0229112 C22.803535,22.0243226 22.8009969,22.0254518 22.7984587,22.0265809 C22.786896,22.032509 22.7750512,22.0384371 22.7634885,22.0443651 C22.7606682,22.0460588 22.7575661,22.047188 22.7547459,22.0488817 C22.7536178,22.0494463 22.7527718,22.0500109 22.7519257,22.0505754 C22.2674181,22.3035057 21.8740024,22.7122592 21.6430293,23.2150148 L21.1026821,24.3907456 C20.8756573,24.8850324 20.3866373,25.1947027 19.8581348,25.2043005 C19.8505203,25.2043005 19.8426238,25.2045828 19.8350093,25.2051473 C19.7543521,25.2051473 19.6731308,25.1986547 19.5916274,25.184258 L18.3183142,24.9615325 C17.6344196,24.8418423 16.9268354,25.0165788 16.3768996,25.4405758 L15.3528907,26.2301362 C15.3052296,26.267116 15.2550303,26.2992969 15.203985,26.3292194 Z M23.8704107,31.6949557 L22.7993048,29.8129395 C22.6512452,29.5526697 22.3204375,29.4620551 22.0609806,29.6102565 C21.8009596,29.7584579 21.7104318,30.0892998 21.8584914,30.3495696 L22.9293153,32.2313035 L21.1303198,35.6611065 L16.1797687,26.961263 L17.0382327,26.2992969 C17.3481709,26.060481 17.746945,25.9619623 18.1321822,26.0294292 L19.4054952,26.2521548 C19.4494901,26.2600588 19.493767,26.2659869 19.5377619,26.2713503 L20.6085858,28.1533665 C20.7084203,28.3286675 20.8914503,28.4271862 21.0795565,28.4271862 C21.1703665,28.4271862 21.2625864,28.4043209 21.347192,28.3560495 C21.606931,28.2078482 21.6974589,27.8770062 21.5496812,27.6167364 L20.703908,26.1304885 C21.3009409,25.905787 21.8063179,25.4538433 22.0866443,24.8438183 L22.6269916,23.6680875 C22.6856514,23.5404932 22.7634885,23.4239081 22.8554264,23.3208729 L27.734909,31.8953804 L23.8704107,31.6949557 Z" id="Shape" fill="url(#linearGradient-2)"/>
                </g>
            </g>
        </g>
    </g>
</svg>